<svg width="64" height="64" viewBox="0 0 64 64" fill="none" xmlns="http://www.w3.org/2000/svg">
<circle cx="32" cy="32" r="32" fill="#141E3B"/>
<path fill-rule="evenodd" clip-rule="evenodd" d="M24.5628 14.7509C25.887 13.4267 28.034 13.4267 29.3582 14.7509L40.4474 25.8402L35.9518 30.3358L26.9605 21.3446L17.9692 30.3358L22.4648 34.8315L26.9605 30.3358L31.4561 34.8315L26.9605 39.3271L33.7039 46.0706C34.9454 47.312 34.9454 49.3248 33.7039 50.5662C32.4625 51.8077 30.4497 51.8077 29.2083 50.5662L11.3756 32.7335C10.0514 31.4093 10.0514 29.2624 11.3756 27.9382L24.5628 14.7509Z" fill="#3CEAAA"/>
<path fill-rule="evenodd" clip-rule="evenodd" d="M33.554 14.7509C34.8782 13.4267 37.0251 13.4267 38.3493 14.7509L51.5366 27.9382C52.8608 29.2624 52.8608 31.4093 51.5366 32.7335L33.8537 50.4164C32.5295 51.7406 30.3825 51.7406 29.0583 50.4164L26.9604 48.3184L35.9517 39.3271L26.9604 30.3358L31.456 25.8402L40.4473 34.8315L44.9429 30.3358L31.456 16.8489L33.554 14.7509Z" fill="#03BCE4"/>
<rect x="26.9605" y="21.3447" width="6.3578" height="6.3578" transform="rotate(45 26.9605 21.3447)" fill="#029ABB"/>
<rect opacity="0.95" x="35.9517" y="21.3447" width="6.3578" height="6.3578" transform="rotate(45 35.9517 21.3447)" fill="#3CEAAA"/>
</svg>
