<svg xmlns="http://www.w3.org/2000/svg" width="180.000000pt" height="180.000000pt" viewBox="0 0 180.000000 180.000000" preserveAspectRatio="xMidYMid meet"><g transform="translate(0.000000,180.000000) scale(0.100000,-0.100000)" fill="#000000" stroke="none"><path d="M877 1595 c-24 -23 -34 -67 -61 -250 -51 -351 -94 -421 -413 -669 -117 -90 -154 -136 -132 -162 22 -26 80 -15 228 45 199 80 272 101 371 108 111 7 214 -17 403 -96 202 -84 246 -93 261 -54 12 30 -28 75 -142 162 -162 123 -233 190 -288 272 -61 93 -90 187 -120 394 -29 200 -32 213 -50 243 -17 26 -36 28 -57 7z"></path><path d="M353 1295 c-125 -75 -115 -247 18 -315 46 -24 87 -25 137 -5 75 32 112 86 112 166 0 140 -147 225 -267 154z"></path><path d="M1285 1306 c-149 -69 -136 -285 21 -336 74 -25 156 7 205 78 18 27 24 48 23 91 0 104 -62 172 -162 178 -34 2 -69 -2 -87 -11z"></path><path d="M825 523 c-46 -24 -66 -45 -86 -88 -69 -149 83 -304 233 -237 25 11 58 36 74 58 25 33 29 46 29 104 0 58 -4 72 -28 103 -53 70 -153 97 -222 60z"></path></g></svg>