<svg width="50" height="50" viewBox="0 0 50 50" fill="none" xmlns="http://www.w3.org/2000/svg">
<circle cx="25" cy="25.0006" r="16.8868" transform="rotate(-53.77 25 25.0006)" fill="url(#paint0_linear)" stroke="#6041E9" stroke-width="2"/>
<path opacity="0.7" fill-rule="evenodd" clip-rule="evenodd" d="M39.8618 30.221C39.3601 31.7089 38.6245 33.1461 37.647 34.4803C36.6586 35.8293 35.4951 36.9742 34.2107 37.9067L25.2041 31.3076C24.8994 31.0843 24.4864 31.0795 24.1766 31.2957L15.272 37.5097C12.6242 35.4178 10.8251 32.6273 9.94493 29.5944L15.5499 25.683C16.0466 25.3364 16.055 24.6041 15.5665 24.2461L10.1213 20.2564C10.6233 18.7508 11.3644 17.2963 12.3528 15.9473C13.3303 14.6132 14.479 13.4787 15.7466 12.5519L24.3203 18.8338C24.625 19.0571 25.038 19.0618 25.3478 18.8456L34.3049 12.595C37.031 14.605 38.9186 17.3319 39.8979 20.3248L33.9745 24.4584C33.4778 24.805 33.4694 25.5373 33.9579 25.8952L39.8618 30.221Z" fill="#BC79F9"/>
<path fill-rule="evenodd" clip-rule="evenodd" d="M24.2781 15.7832L28.5952 18.274L24.2781 20.7648L19.9611 18.274L24.2781 15.7832ZM29.5549 19.746V24.7297L25.1527 27.2673V22.2857L29.5549 19.746ZM30.9826 25.944L25.1527 29.3005V34.2843L30.9826 30.9278V25.944ZM18.991 24.7276V19.746L23.391 22.2857V27.2673L18.991 24.7276ZM18.991 26.7602V31.7439L23.391 34.2815V29.2999L18.991 26.7602Z" fill="white"/>
<defs>
<linearGradient id="paint0_linear" x1="11.9701" y1="34.1428" x2="37.5626" y2="15.7928" gradientUnits="userSpaceOnUse">
<stop stop-color="#5E40E7"/>
<stop offset="1" stop-color="#AB64F9"/>
</linearGradient>
</defs>
</svg>
